<?xml version="1.0" standalone="no"?>
<!DOCTYPE svg PUBLIC "-//W3C//DTD SVG 20010904//EN"
 "http://www.w3.org/TR/2001/REC-SVG-20010904/DTD/svg10.dtd">
<svg version="1.0" xmlns="http://www.w3.org/2000/svg"
 width="512.000000pt" height="512.000000pt" viewBox="0 0 512.000000 512.000000"
 preserveAspectRatio="xMidYMid meet">
<metadata>
Created by potrace 1.14, written by Peter Selinger 2001-2017
</metadata>
<g transform="translate(0.000000,512.000000) scale(0.100000,-0.100000)"
fill="#000000" stroke="none">
<path d="M2378 5115 c-2 -1 -34 -6 -73 -9 -66 -6 -87 -9 -160 -21 -16 -3 -46
-8 -65 -11 -106 -17 -413 -105 -434 -125 -6 -5 -16 -9 -23 -9 -22 0 -223 -95
-318 -150 -48 -27 -89 -50 -91 -50 -7 0 -182 -125 -244 -174 -357 -282 -646
-678 -805 -1101 -57 -153 -114 -361 -129 -476 -3 -19 -7 -50 -10 -69 -17 -101
-23 -225 -21 -410 2 -113 6 -214 8 -225 3 -11 8 -45 12 -75 6 -45 35 -203 50
-270 31 -138 112 -355 195 -521 281 -565 758 -1003 1345 -1237 55 -22 125 -47
155 -57 104 -32 187 -54 221 -60 19 -3 41 -8 49 -10 155 -44 599 -66 813 -40
582 71 1110 327 1521 740 282 283 495 629 615 998 31 96 79 285 86 340 2 16 7
42 10 58 39 178 39 614 0 824 -21 112 -38 190 -56 254 -11 42 -22 83 -24 91
-11 53 -116 304 -176 419 -220 425 -546 771 -964 1023 -64 39 -298 158 -310
158 -4 0 -21 6 -38 14 -99 45 -376 126 -487 141 -24 4 -47 8 -50 10 -3 2 -37
6 -75 10 -39 4 -74 10 -79 13 -9 5 -442 12 -448 7z"/>
</g>
</svg>
