<?xml version="1.0" standalone="no"?>
<!DOCTYPE svg PUBLIC "-//W3C//DTD SVG 20010904//EN"
 "http://www.w3.org/TR/2001/REC-SVG-20010904/DTD/svg10.dtd">
<svg version="1.0" xmlns="http://www.w3.org/2000/svg"
 width="443.000000pt" height="443.000000pt" viewBox="0 0 443.000000 443.000000"
 preserveAspectRatio="xMidYMid meet">
<metadata>
Created by potrace 1.14, written by Peter Selinger 2001-2017
</metadata>
<g transform="translate(0.000000,443.000000) scale(0.100000,-0.100000)"
fill="#000000" stroke="none">
<path d="M2016 4419 c-107 -12 -173 -23 -315 -53 -56 -12 -143 -40 -246 -78
-422 -156 -798 -458 -1061 -854 -136 -205 -265 -512 -309 -735 -41 -206 -49
-283 -49 -484 -1 -142 5 -249 19 -325 34 -194 34 -194 61 -289 91 -312 259
-623 459 -850 36 -42 181 -186 221 -222 85 -74 250 -190 349 -246 218 -123
529 -232 740 -258 28 -4 61 -9 75 -12 46 -10 435 -11 495 -2 244 39 342 62
505 121 111 40 320 142 415 203 37 24 168 117 175 125 3 3 23 18 44 34 60 45
244 232 315 319 130 162 245 359 326 555 40 99 92 257 100 307 2 11 11 52 19
90 34 160 41 238 41 450 -1 160 -7 266 -19 332 -3 11 -7 36 -10 54 -99 609
-486 1182 -1016 1505 -259 157 -524 253 -825 299 -119 18 -398 26 -509 14z"/>
</g>
</svg>
